<svg id="Layer_1" data-name="Layer 1" xmlns="http://www.w3.org/2000/svg" viewBox="0 0 72 69.27"><defs><style>.cls-1{opacity:0.75;}.cls-2{fill:#fff;stroke:#fff;stroke-miterlimit:10;}</style></defs><title>icon-download</title><g class="cls-1"><path class="cls-2" d="M42.91,42.46h17.3A11.26,11.26,0,0,0,71.47,31.19h0c.66-9.1-10-11.26-10-11.26h0S62.56-.68,42.12.55c-6.51.39-12.18,3.06-15.69,8h0l-.15-.12h0a9.19,9.19,0,0,0-5-1.23,11,11,0,0,0-10.79,11A8.45,8.45,0,0,0,10.67,20h-.09A10.91,10.91,0,0,0,.5,31.19h0A11.26,11.26,0,0,0,11.76,42.46H29l0-3.61H12A8,8,0,0,1,4,31H4c0-5.48,4.74-8.22,10.63-7.88h.08c-.11-.59-.34-1-.41-1.6-.74-6,1.67-11.37,8.84-10.48a11.28,11.28,0,0,1,4.26,1.52h0l.18-.37h0A21.46,21.46,0,0,1,42.33,3.7c17.2-1.34,15.95,18.84,15.95,18.85h0S68.46,23,67.88,31h0c0,5.46-4.4,7.87-9.83,7.87H42.94l0,3.61Z"/><polygon class="cls-2" points="37.8 21.42 37.78 61.7 51.13 48.34 53.67 50.89 36 68.56 18.33 50.89 20.87 48.34 34.19 61.66 34.2 21.42 37.8 21.42"/></g></svg>