<svg id="Layer_1" data-name="Layer 1" xmlns="http://www.w3.org/2000/svg" viewBox="0 0 66.73 71.24"><defs><style>.cls-1{fill:#fff;opacity:0.75;}</style></defs><title>icon-phone</title><path class="cls-1" d="M21.8,42.34A61.15,61.15,0,0,0,37.32,55.41a2.8,2.8,0,0,0,3.55-.61l5.39-6.34a2.81,2.81,0,0,1,2.52-1A89.73,89.73,0,0,1,64.5,50.64a2.8,2.8,0,0,1,1.9,2.49,151.09,151.09,0,0,1,.21,15.43,2.82,2.82,0,0,1-2.91,2.68A65.12,65.12,0,0,1,15.21,47.65l-.11-.14h0l-.1-.13A65.48,65.48,0,0,1,.07,2.69,2.82,2.82,0,0,1,3,0,151.08,151.08,0,0,1,18.33,1.4a2.8,2.8,0,0,1,2.33,2.09A89.74,89.74,0,0,1,22.58,19.4a2.81,2.81,0,0,1-1.16,2.44l-6.73,4.88a2.81,2.81,0,0,0-.88,3.51,56.56,56.56,0,0,0,7.75,11.85Z"/></svg>