<svg id="Layer_1" data-name="Layer 1" xmlns="http://www.w3.org/2000/svg" viewBox="0 0 325.82 326.1"><defs><style>.cls-1{fill:#fff;}.cls-2{fill:#b0bec5;}</style></defs><title>icon-github</title><rect class="cls-1" width="325.82" height="326.1"/><path class="cls-2" d="M191.09,130.64H131.16v60.92a3.57,3.57,0,0,0,3.57,3.57h17.39c1.13,0,1.86-.43,1.93-1.39l.07-7.09a23.37,23.37,0,0,1-4.57.44,8.48,8.48,0,0,1-7.19-3.65c-.93-1.66-1.15-4.24-5.36-7.08-1-.81-1-1.43,0-1.61a5.54,5.54,0,0,1,4.18,1.18c2.6,1.66,3.49,5.43,6.54,6.33,2.64.51,5.1.31,6.44-.86a8.85,8.85,0,0,1,2.36-4.72c-10.71-1.15-14.68-6.34-16.27-13-1.2-6.07-.25-11.17,3.4-15-1.06-3.48-1-6.73.54-9.66,2.92-.07,6.19,1.15,9.87,3.86a33.4,33.4,0,0,1,18.45,0c3.64-2.67,7-3.95,10.08-3.86a12.46,12.46,0,0,1,.56,9.77c4.29,4.29,4.57,11.8,2.69,17.25s-6.2,9.77-15.58,10.42c3.24,4.42,2,5,2.25,17.38a1.39,1.39,0,0,0,1.39,1.29h20.76V134.21A3.57,3.57,0,0,0,191.09,130.64Z"/><ellipse class="cls-2" cx="150.24" cy="183.57" rx="0.76" ry="0.58"/><ellipse class="cls-2" cx="153.02" cy="183.25" rx="0.76" ry="0.54"/><ellipse class="cls-2" cx="147.26" cy="183.2" rx="0.58" ry="0.76" transform="translate(-65.79 282.49) rotate(-76.19)"/><ellipse class="cls-2" cx="144.66" cy="181.66" rx="0.5" ry="0.65" transform="translate(-87.15 167.77) rotate(-48.04)"/><ellipse class="cls-2" cx="142.81" cy="179.5" rx="0.5" ry="0.65" transform="translate(-66.23 85.07) rotate(-27.18)"/><ellipse class="cls-2" cx="139.85" cy="176.19" rx="0.37" ry="0.48" transform="translate(-83.96 198.76) rotate(-57.32)"/><ellipse class="cls-2" cx="141.34" cy="177.49" rx="0.41" ry="0.54" transform="translate(-84.11 151.93) rotate(-45)"/></svg>