<?xml version="1.0" encoding="utf-8"?>
<!-- Generator: Adobe Illustrator 20.0.0, SVG Export Plug-In . SVG Version: 6.00 Build 0)  -->
<svg version="1.1" id="Layer_1" xmlns="http://www.w3.org/2000/svg" xmlns:xlink="http://www.w3.org/1999/xlink" x="0px" y="0px"
	 viewBox="0 0 325.8 326.1" style="enable-background:new 0 0 325.8 326.1;" xml:space="preserve">
<style type="text/css">
	.st0{fill:#FFFFFF;}
	.st1{fill:#B0BEC5;}
</style>
<rect class="st0" width="325.8" height="326.1"/>
<path class="st1" d="M131.2,130.8v60.9c0,2,1.6,3.6,3.6,3.6h59.9v-60.9c0-2-1.6-3.6-3.6-3.6H131.2z M149.2,186.5h-9.9v-31.8h9.9
	V186.5z M145.6,150.5c-4.5,1-8.4-2.9-7.4-7.4c0.5-2.2,2.3-4.1,4.6-4.6c4.5-1,8.4,2.9,7.4,7.4C149.7,148.2,147.8,150,145.6,150.5z
	 M186.1,186.5h-10v-18.3c0-8.8-10.8-5.6-10.8,0.7v17.6h-9.9v-31.8h9.3l0.1,4.2c2.8-3.6,6.2-5.6,10.4-5.2c8.4,0,10.9,6.2,10.9,10.9
	V186.5z"/>
</svg>
