<svg id="Layer_1" data-name="Layer 1" xmlns="http://www.w3.org/2000/svg" viewBox="0 0 325.82 326.1"><defs><style>.cls-1{fill:#fff;}.cls-2{fill:#b0bec5;}</style></defs><title>icon-facebook</title><rect class="cls-1" width="325.82" height="326.1"/><path class="cls-2" d="M191.09,130.8H131.16v60.92a3.57,3.57,0,0,0,3.57,3.57H165V170.17h-8.48v-10H165v-6.49c-.12-4.4,1-7.72,3.37-10,2.61-2.46,5.65-3.36,10.31-3.28l6.52.2v8.85H178.7a3.92,3.92,0,0,0-2.64,1.07,4.39,4.39,0,0,0-.82,3.18v6.49h9.65l-1.26,10h-8.38V195.3h19.42V134.37A3.57,3.57,0,0,0,191.09,130.8Z" transform="translate(0 -0.16)"/></svg>