<?xml version="1.0" encoding="utf-8"?>
<!-- Generator: Adobe Illustrator 20.0.0, SVG Export Plug-In . SVG Version: 6.00 Build 0)  -->
<svg version="1.1" id="Layer_1" xmlns="http://www.w3.org/2000/svg" xmlns:xlink="http://www.w3.org/1999/xlink" x="0px" y="0px"
	 viewBox="0 0 325.8 326.1" style="enable-background:new 0 0 325.8 326.1;" xml:space="preserve">
<style type="text/css">
	.st0{fill:#FFFFFF;}
	.st1{fill:#B0BEC5;}
</style>
<rect x="1.3" y="0.1" class="st0" width="325.8" height="326.1"/>
<g>
	<path class="st1" d="M177.6,143.8h-34v34c0,2.5,2,4.5,4.5,4.5h34v-34C182.1,145.8,180.1,143.8,177.6,143.8z M171.4,171.6
		c-4.7,4.7-12.2,4.7-16.9,0s-4.7-12.2,0-16.9c4.7-4.7,12.2-4.7,16.9,0C176,159.4,176,166.9,171.4,171.6z M175.4,153.5
		c-1.6,0-2.9-1.3-2.9-2.9c0-1.6,1.3-2.9,2.9-2.9s2.9,1.3,2.9,2.9C178.3,152.2,177,153.5,175.4,153.5z"/>
	<path class="st1" d="M191.1,131h-59.9v60.9c0,2,1.6,3.6,3.6,3.6h59.9v-60.9C194.7,132.5,193.1,131,191.1,131z M186.3,184.6
		c0,1-0.8,1.9-1.9,1.9H148c-4.7,0-8.5-3.8-8.5-8.5v-36.5c0-1,0.8-1.9,1.9-1.9h36.5c4.7,0,8.5,3.8,8.5,8.5V184.6z"/>
	
		<ellipse transform="matrix(0.7071 -0.7071 0.7071 0.7071 -67.6296 162.9948)" class="st1" cx="162.9" cy="163.1" rx="7.6" ry="7.6"/>
</g>
</svg>
