<svg id="Layer_1" data-name="Layer 1" xmlns="http://www.w3.org/2000/svg" viewBox="0 0 92.95 132.76"><defs><style>.cls-1{fill:#fff;opacity:0.38;}</style></defs><title>small-icon-diver</title><path class="cls-1" d="M39.23,65H53.72a1.57,1.57,0,0,0,1.57-1.57V56.23H37.66v7.25A1.57,1.57,0,0,0,39.23,65Z" transform="translate(0 0)"/><rect class="cls-1" x="37.66" y="37.18" width="17.62" height="17.62"/><path class="cls-1" d="M56.72,37.18V54.8H64a1.57,1.57,0,0,0,1.57-1.57V38.75A1.57,1.57,0,0,0,64,37.18Z" transform="translate(0 0)"/><path class="cls-1" d="M56.72,28.18v7.57h7.54a2.79,2.79,0,0,1,1.44.41,21.92,21.92,0,0,0-9.33-9.3A2.78,2.78,0,0,1,56.72,28.18Z" transform="translate(0 0)"/><path class="cls-1" d="M36.23,63.77V56.23H28.67a2.8,2.8,0,0,1-1.59-.5,21.93,21.93,0,0,0,9.78,9.78A2.79,2.79,0,0,1,36.23,63.77Z" transform="translate(0 0)"/><path class="cls-1" d="M64.26,56.23H56.72v7.54a2.79,2.79,0,0,1-.64,1.77,21.75,21.75,0,0,0,9.84-9.86A2.79,2.79,0,0,1,64.26,56.23Z" transform="translate(0 0)"/><path class="cls-1" d="M53.72,26.94H39.23a1.57,1.57,0,0,0-1.57,1.57v7.25H55.29V28.5A1.57,1.57,0,0,0,53.72,26.94Z" transform="translate(0 0)"/><path class="cls-1" d="M27.42,38.75V53.23A1.57,1.57,0,0,0,29,54.8h7.24V37.18H29A1.57,1.57,0,0,0,27.42,38.75Z" transform="translate(0 0)"/><path class="cls-1" d="M28.67,35.75h7.57V28.18a2.78,2.78,0,0,1,.36-1.35,21.75,21.75,0,0,0-9.36,9.32A2.79,2.79,0,0,1,28.67,35.75Z" transform="translate(0 0)"/><path class="cls-1" d="M92.88,90.5a1.32,1.32,0,0,0-1.25-.91H88.45a1.3,1.3,0,0,0-1.21.85H77.38a.92.92,0,0,1-.92-.92V87.59h.38a1.57,1.57,0,0,0,0-3.14H77a1.57,1.57,0,1,0,0-3.14h-.54V71.72A40.62,40.62,0,0,0,83,62.11l5.39-.88a2.33,2.33,0,0,0,1.88-1.64c3.2-10.08,3.11-18.2,0-28.28a2.44,2.44,0,0,0-.26-.57,2.31,2.31,0,0,0-1.66-1.09L84.24,29A40.3,40.3,0,0,0,63.09,7.21L62.56,4A2.28,2.28,0,0,0,60.93,2.1,52.16,52.16,0,0,0,46.75,0,51.94,51.94,0,0,0,32.59,2.1,2.29,2.29,0,0,0,30.95,4l-.47,3.08A40.65,40.65,0,0,0,9,29.14l-4.32.71A2.28,2.28,0,0,0,2.8,31.48,52.16,52.16,0,0,0,.7,45.65,51.94,51.94,0,0,0,2.8,59.82a2.29,2.29,0,0,0,1.91,1.64l5.6.85a40.63,40.63,0,0,0,6.61,9.55v9.44h-.6a1.57,1.57,0,1,0,0,3.14H16.2a1.57,1.57,0,1,0,0,3.14h.73v1.93a.92.92,0,0,1-.92.92H5.71a1.3,1.3,0,0,0-1.21-.85H1.32A1.32,1.32,0,0,0,0,91.06a46.74,46.74,0,0,0,76.21,31q1.62-1.34,3.11-2.81t2.84-3.07q1.35-1.6,2.56-3.32a46.73,46.73,0,0,0,3.27-5.4q1-1.88,1.77-3.85.4-1,.76-2a46.47,46.47,0,0,0,2.4-10.56,1.35,1.35,0,0,0,0-.29A1.33,1.33,0,0,0,92.88,90.5ZM3.12,93.69a1.32,1.32,0,1,1,1.32-1.32A1.32,1.32,0,0,1,3.12,93.69Zm13.41,25.23a1.32,1.32,0,1,1,1.32-1.32A1.32,1.32,0,0,1,16.53,118.92Zm2.35-38.33a.51.51,0,0,1,.51-.51h8.73a.51.51,0,0,1,.51.51v.35H18.87Zm.12,7v-.35h9.74v.35a.51.51,0,0,1-.51.51H19.5A.51.51,0,0,1,19,87.56Zm14.19,21.79a1,1,0,0,1-1,.9H30.76a1,1,0,0,1-1-.86,4.44,4.44,0,0,1,0-8.23,1,1,0,0,1,1-1h1.43a1,1,0,0,1,1,1h0a4.44,4.44,0,0,1,0,8.15Zm13.49,21.49A1.32,1.32,0,1,1,48,129.52,1.32,1.32,0,0,1,46.68,130.85Zm4.85-43.28a.51.51,0,0,1-.51.51H42.29a.51.51,0,0,1-.51-.51v-.35h9.74Zm0-6.62H41.79v-.35a.51.51,0,0,1,.51-.51H51a.51.51,0,0,1,.51.51ZM64,109.36a1,1,0,0,1-1,.9H61.62a1,1,0,0,1-1-.86,4.44,4.44,0,0,1,0-8.23,1,1,0,0,1,1-1H63a1,1,0,0,1,1,1h0a4.44,4.44,0,0,1,0,8.15ZM74.32,87.56a.51.51,0,0,1-.51.51H65.09a.51.51,0,0,1-.51-.51v-.35h9.74Zm-9.86-6.62v-.35a.51.51,0,0,1,.51-.51h8.73a.51.51,0,0,1,.51.51v.35ZM74.87,50.06a2.73,2.73,0,0,1-1.07,2.16v.66a1.84,1.84,0,0,1-3.66.3,24.51,24.51,0,1,1,0-14.09v-.53a1.85,1.85,0,0,1,3.69,0v.66a2.73,2.73,0,0,1,1.07,2.16Zm1.83,68.86A1.32,1.32,0,1,1,78,117.6,1.32,1.32,0,0,1,76.7,118.92ZM89.83,93.61a1.32,1.32,0,1,1,1.32-1.32A1.32,1.32,0,0,1,89.83,93.61Z" transform="translate(0 0)"/></svg>