<svg id="Layer_1" data-name="Layer 1" xmlns="http://www.w3.org/2000/svg" viewBox="0 0 325.82 326.1"><defs><style>.cls-1{fill:#fff;}.cls-2{fill:#b0bec5;}</style></defs><title>icon-twitter</title><rect class="cls-1" x="-2.03" y="0.57" width="325.82" height="326.1"/><path class="cls-2" d="M191.09,130.64H131.16v60.92a3.57,3.57,0,0,0,3.57,3.57h59.92V134.21A3.57,3.57,0,0,0,191.09,130.64Zm-10.79,24.88c-.38,24-23.69,29-36.24,20.8,4.7.25,8.86-.54,11.87-3.51-3.65-.19-6-2.12-7.32-5.53a7.93,7.93,0,0,0,3.28-.46c-4-1-5.87-3.79-6.16-7.85,1.51.61,2.76.94,3.46.65-3.86-3.25-4.3-6.9-2.36-10.83,5.14,5.47,10.86,8.23,17.05,8.7-.92-8.2,7.39-13.8,14.12-7.66a19.77,19.77,0,0,0,5.3-2,7.83,7.83,0,0,1-3.51,4.61,24.16,24.16,0,0,0,4.61-1.21A16.16,16.16,0,0,1,180.29,155.53Z"/></svg>