<svg id="Layer_1" data-name="Layer 1" xmlns="http://www.w3.org/2000/svg" viewBox="0 0 63.5 64.5"><defs><style>.cls-1{opacity:0.75;}.cls-2{fill:#fff;}</style></defs><title>icon-instagram</title><g class="cls-1"><path class="cls-2" d="M46.4,12.8h-34v34a4.48,4.48,0,0,0,4.5,4.5h34v-34A4.48,4.48,0,0,0,46.4,12.8ZM40.2,40.6a12,12,0,1,1,0-16.9A12.07,12.07,0,0,1,40.2,40.6Zm4-18.1a2.9,2.9,0,1,1,2.9-2.9A2.9,2.9,0,0,1,44.2,22.5Z"/><path class="cls-2" d="M59.9,0H0V60.9a3.59,3.59,0,0,0,3.6,3.6H63.5V3.6A3.52,3.52,0,0,0,59.9,0ZM55.1,53.6a1.9,1.9,0,0,1-1.9,1.9H16.8A8.49,8.49,0,0,1,8.3,47V10.5a1.9,1.9,0,0,1,1.9-1.9H46.7a8.49,8.49,0,0,1,8.5,8.5V53.6Z"/><circle class="cls-2" cx="31.68" cy="32.14" r="7.6" transform="translate(-13.44 31.82) rotate(-45)"/></g></svg>