<svg id="Layer_1" data-name="Layer 1" xmlns="http://www.w3.org/2000/svg" viewBox="0 0 40.34 32.76"><defs><style>.cls-1{fill:#fff;opacity:0.75;}</style></defs><title>icon-twitter</title><path class="cls-1" d="M36.24,8.29c-.38,24-23.69,29-36.24,20.8,4.7.25,8.86-.54,11.87-3.51-3.65-.19-6-2.12-7.32-5.53a7.93,7.93,0,0,0,3.28-.46c-4-1-5.87-3.79-6.16-7.85,1.51.61,2.76.94,3.46.65C1.27,9.14.83,5.49,2.77,1.56,7.91,7,13.63,9.79,19.82,10.26c-.92-8.2,7.39-13.8,14.12-7.66a19.77,19.77,0,0,0,5.3-2,7.83,7.83,0,0,1-3.51,4.61A24.16,24.16,0,0,0,40.34,4a16.16,16.16,0,0,1-4.11,4.3Z"/></svg>